<?xml version="1.0" encoding="iso-8859-1"?>
<!-- Generator: Adobe Illustrator 19.0.0, SVG Export Plug-In . SVG Version: 6.00 Build 0)  -->
<svg version="1.1" id="Capa_1" xmlns="http://www.w3.org/2000/svg" xmlns:xlink="http://www.w3.org/1999/xlink" x="0px" y="0px"
	 viewBox="0 0 58.036 58.036" style="enable-background:new 0 0 58.036 58.036;" xml:space="preserve">
<g>
	<g>
		<path d="M16,27.518c-2.757,0-5,2.243-5,5s2.243,5,5,5s5-2.243,5-5S18.757,27.518,16,27.518z M16,35.518c-1.654,0-3-1.346-3-3
			c0-1.084,0.583-2.026,1.446-2.554C14.169,30.419,14,30.947,14,31.518c0,0.552,0.448,1,1,1s1-0.448,1-1c0-0.551,0.449-1,1-1
			s1,0.449,1,1s-0.449,1-1,1c-0.552,0-1,0.448-1,1s0.448,1,1,1c0.571,0,1.099-0.169,1.554-0.446
			C18.026,34.935,17.084,35.518,16,35.518z"/>
		<path d="M42,27.518c-2.757,0-5,2.243-5,5s2.243,5,5,5s5-2.243,5-5S44.757,27.518,42,27.518z M42,35.518c-1.654,0-3-1.346-3-3
			c0-1.084,0.583-2.026,1.446-2.554C40.169,30.419,40,30.947,40,31.518c0,0.552,0.448,1,1,1s1-0.448,1-1c0-0.551,0.449-1,1-1
			s1,0.449,1,1s-0.449,1-1,1c-0.552,0-1,0.448-1,1s0.448,1,1,1c0.571,0,1.099-0.169,1.554-0.446
			C44.026,34.935,43.084,35.518,42,35.518z"/>
		<path d="M53,45.518v-16.5c0-10.201-8.301-18.5-18.505-18.5H23.505C13.301,10.518,5,18.817,5,29.018v16.5H0v2h6h46h6.036v-2H53z
			 M7,45.518v-16.5c0-9.098,7.404-16.5,16.505-16.5h10.989c9.101,0,16.505,7.402,16.505,16.5v16.5H7z"/>
	</g>
</g>
<g>
</g>
<g>
</g>
<g>
</g>
<g>
</g>
<g>
</g>
<g>
</g>
<g>
</g>
<g>
</g>
<g>
</g>
<g>
</g>
<g>
</g>
<g>
</g>
<g>
</g>
<g>
</g>
<g>
</g>
</svg>
